<svg viewBox="0 0 32 32" xmlns="http://www.w3.org/2000/svg"><path d="m27 16.76c0-.25 0-.5 0-.76s0-.51 0-.77l1.92-1.68a2 2 0 0 0 .38-2.55l-2.36-4a2 2 0 0 0 -1.73-1 2 2 0 0 0 -.64.1l-2.43.82a11.35 11.35 0 0 0 -1.31-.75l-.51-2.52a2 2 0 0 0 -2-1.61h-4.68a2 2 0 0 0 -2 1.61l-.51 2.52a11.48 11.48 0 0 0 -1.32.75l-2.38-.86a2 2 0 0 0 -.64-.06 2 2 0 0 0 -1.73 1l-2.36 4a2 2 0 0 0 .41 2.51l1.89 1.73v.76s0 .51 0 .77l-1.89 1.68a2 2 0 0 0 -.41 2.55l2.36 4a2 2 0 0 0 1.73 1 2 2 0 0 0 .64-.1l2.43-.82a11.35 11.35 0 0 0 1.31.75l.51 2.52a2 2 0 0 0 2 1.61h4.72a2 2 0 0 0 2-1.61l.51-2.52a11.48 11.48 0 0 0 1.32-.75l2.42.82a2 2 0 0 0 .64.1 2 2 0 0 0 1.73-1l2.28-4a2 2 0 0 0 -.41-2.51zm-1.79 7.24-3.43-1.16a8.86 8.86 0 0 1 -2.71 1.57l-.71 3.59h-4.72l-.71-3.55a9.36 9.36 0 0 1 -2.7-1.57l-3.44 1.12-2.36-4 2.72-2.4a8.9 8.9 0 0 1 0-3.13l-2.72-2.47 2.36-4 3.43 1.16a8.86 8.86 0 0 1 2.71-1.57l.71-3.59h4.72l.71 3.55a9.36 9.36 0 0 1 2.7 1.57l3.44-1.12 2.36 4-2.72 2.4a8.9 8.9 0 0 1 0 3.13l2.72 2.47z"/><path d="m16 22a6 6 0 1 1 6-6 5.94 5.94 0 0 1 -6 6zm0-10a3.91 3.91 0 0 0 -4 4 3.91 3.91 0 0 0 4 4 3.91 3.91 0 0 0 4-4 3.91 3.91 0 0 0 -4-4z"/><path d="m0 0h32v32h-32z" fill="none"/></svg>